<mxfile host="app.diagrams.net" modified="2022-11-26T14:18:20.224Z" agent="5.0 (Windows NT 10.0; Win64; x64) AppleWebKit/537.36 (KHTML, like Gecko) Chrome/107.0.0.0 Safari/537.36" etag="YeoaArPt_YQpZE6mozh0" version="20.6.0" type="github">
  <diagram id="nNupsj4jywxEakiYjryM" name="Page-1">
    <mxGraphModel dx="865" dy="428" grid="1" gridSize="10" guides="1" tooltips="1" connect="1" arrows="1" fold="1" page="1" pageScale="1" pageWidth="850" pageHeight="1100" math="0" shadow="0">
      <root>
        <mxCell id="0" />
        <mxCell id="1" parent="0" />
        <mxCell id="jz-TBpXuQfXwvzFLT4BO-8" value="&lt;font style=&quot;font-size: 9px;&quot;&gt;has_job&lt;/font&gt;" style="edgeStyle=orthogonalEdgeStyle;rounded=0;orthogonalLoop=1;jettySize=auto;html=1;exitX=1;exitY=0.5;exitDx=0;exitDy=0;fontSize=6;" parent="1" source="jz-TBpXuQfXwvzFLT4BO-1" target="jz-TBpXuQfXwvzFLT4BO-7" edge="1">
          <mxGeometry relative="1" as="geometry" />
        </mxCell>
        <mxCell id="jz-TBpXuQfXwvzFLT4BO-20" style="edgeStyle=orthogonalEdgeStyle;rounded=0;orthogonalLoop=1;jettySize=auto;html=1;exitX=0.5;exitY=1;exitDx=0;exitDy=0;entryX=0.5;entryY=0;entryDx=0;entryDy=0;fontSize=9;" parent="1" source="jz-TBpXuQfXwvzFLT4BO-1" target="jz-TBpXuQfXwvzFLT4BO-17" edge="1">
          <mxGeometry relative="1" as="geometry" />
        </mxCell>
        <mxCell id="jz-TBpXuQfXwvzFLT4BO-21" value="type of" style="edgeLabel;html=1;align=center;verticalAlign=middle;resizable=0;points=[];fontSize=9;" parent="jz-TBpXuQfXwvzFLT4BO-20" vertex="1" connectable="0">
          <mxGeometry x="-0.2106" relative="1" as="geometry">
            <mxPoint y="6" as="offset" />
          </mxGeometry>
        </mxCell>
        <mxCell id="jz-TBpXuQfXwvzFLT4BO-1" value="&lt;font style=&quot;font-size: 10px;&quot;&gt;&lt;b style=&quot;&quot;&gt;Bill Gates&lt;/b&gt;&lt;/font&gt;" style="rounded=0;whiteSpace=wrap;html=1;" parent="1" vertex="1">
          <mxGeometry x="30" y="120" width="80" height="35" as="geometry" />
        </mxCell>
        <mxCell id="jz-TBpXuQfXwvzFLT4BO-13" value="in_org" style="edgeStyle=orthogonalEdgeStyle;rounded=0;orthogonalLoop=1;jettySize=auto;html=1;exitX=1;exitY=0.5;exitDx=0;exitDy=0;entryX=0;entryY=0.5;entryDx=0;entryDy=0;fontSize=9;" parent="1" source="jz-TBpXuQfXwvzFLT4BO-7" target="jz-TBpXuQfXwvzFLT4BO-9" edge="1">
          <mxGeometry relative="1" as="geometry" />
        </mxCell>
        <mxCell id="jz-TBpXuQfXwvzFLT4BO-14" style="edgeStyle=orthogonalEdgeStyle;rounded=0;orthogonalLoop=1;jettySize=auto;html=1;exitX=0.5;exitY=0;exitDx=0;exitDy=0;entryX=0.5;entryY=1;entryDx=0;entryDy=0;fontSize=9;" parent="1" source="jz-TBpXuQfXwvzFLT4BO-7" target="jz-TBpXuQfXwvzFLT4BO-11" edge="1">
          <mxGeometry relative="1" as="geometry" />
        </mxCell>
        <mxCell id="jz-TBpXuQfXwvzFLT4BO-15" value="title" style="edgeStyle=orthogonalEdgeStyle;rounded=0;orthogonalLoop=1;jettySize=auto;html=1;fontSize=9;" parent="1" source="jz-TBpXuQfXwvzFLT4BO-7" target="jz-TBpXuQfXwvzFLT4BO-11" edge="1">
          <mxGeometry x="-0.6" relative="1" as="geometry">
            <mxPoint as="offset" />
          </mxGeometry>
        </mxCell>
        <mxCell id="jz-TBpXuQfXwvzFLT4BO-24" style="edgeStyle=orthogonalEdgeStyle;rounded=0;orthogonalLoop=1;jettySize=auto;html=1;exitX=0.5;exitY=1;exitDx=0;exitDy=0;entryX=0.5;entryY=0;entryDx=0;entryDy=0;fontSize=9;" parent="1" source="jz-TBpXuQfXwvzFLT4BO-7" target="jz-TBpXuQfXwvzFLT4BO-22" edge="1">
          <mxGeometry relative="1" as="geometry" />
        </mxCell>
        <mxCell id="jz-TBpXuQfXwvzFLT4BO-26" value="type of" style="edgeLabel;html=1;align=center;verticalAlign=middle;resizable=0;points=[];fontSize=9;" parent="jz-TBpXuQfXwvzFLT4BO-24" vertex="1" connectable="0">
          <mxGeometry x="-0.2529" relative="1" as="geometry">
            <mxPoint as="offset" />
          </mxGeometry>
        </mxCell>
        <mxCell id="jz-TBpXuQfXwvzFLT4BO-7" value="&lt;br&gt;&lt;table width=&quot;69&quot; cellspacing=&quot;0&quot; cellpadding=&quot;0&quot; border=&quot;0&quot;&gt;&lt;tbody&gt;&lt;tr style=&quot;height: 14pt;&quot; height=&quot;19&quot;&gt;&lt;td style=&quot;height: 14pt; width: 52pt;&quot; width=&quot;69&quot; height=&quot;19&quot;&gt;&lt;div style=&quot;&quot;&gt;&lt;span style=&quot;font-size: 10px; background-color: initial;&quot;&gt;jb@95cc&lt;/span&gt;&lt;span style=&quot;background-color: initial; font-size: 10px;&quot;&gt;9c&lt;/span&gt;&lt;/div&gt;&lt;div style=&quot;&quot;&gt;&lt;span style=&quot;background-color: initial; font-size: 10px;&quot;&gt;5410&lt;/span&gt;&lt;span style=&quot;background-color: initial; font-size: 10px;&quot;&gt;ae60&lt;/span&gt;&lt;/div&gt;&lt;/td&gt;&lt;/tr&gt;&lt;/tbody&gt;&lt;/table&gt;" style="ellipse;whiteSpace=wrap;html=1;aspect=fixed;fontSize=6;strokeColor=#000000;" parent="1" vertex="1">
          <mxGeometry x="182" y="110" width="55" height="55" as="geometry" />
        </mxCell>
        <mxCell id="jz-TBpXuQfXwvzFLT4BO-25" value="type of" style="edgeStyle=orthogonalEdgeStyle;rounded=0;orthogonalLoop=1;jettySize=auto;html=1;exitX=0.5;exitY=1;exitDx=0;exitDy=0;entryX=0.5;entryY=0;entryDx=0;entryDy=0;fontSize=9;" parent="1" source="jz-TBpXuQfXwvzFLT4BO-9" target="jz-TBpXuQfXwvzFLT4BO-23" edge="1">
          <mxGeometry relative="1" as="geometry" />
        </mxCell>
        <mxCell id="jz-TBpXuQfXwvzFLT4BO-9" value="&lt;font style=&quot;font-size: 10px;&quot;&gt;&lt;b&gt;Microsoft&lt;/b&gt;&lt;/font&gt;" style="rounded=0;whiteSpace=wrap;html=1;" parent="1" vertex="1">
          <mxGeometry x="300" y="120" width="80" height="35" as="geometry" />
        </mxCell>
        <mxCell id="jz-TBpXuQfXwvzFLT4BO-11" value="&lt;font style=&quot;font-size: 10px;&quot;&gt;&lt;b&gt;Founder&lt;/b&gt;&lt;/font&gt;" style="rounded=0;whiteSpace=wrap;html=1;" parent="1" vertex="1">
          <mxGeometry x="169.5" y="40" width="80" height="35" as="geometry" />
        </mxCell>
        <mxCell id="jz-TBpXuQfXwvzFLT4BO-17" value="&lt;font style=&quot;font-size: 10px;&quot;&gt;&lt;b&gt;person&lt;/b&gt;&lt;/font&gt;" style="text;html=1;strokeColor=none;fillColor=none;align=center;verticalAlign=middle;whiteSpace=wrap;rounded=0;fontSize=9;" parent="1" vertex="1">
          <mxGeometry x="53.5" y="200" width="33" height="10" as="geometry" />
        </mxCell>
        <mxCell id="jz-TBpXuQfXwvzFLT4BO-22" value="&lt;font style=&quot;font-size: 10px;&quot;&gt;&lt;b&gt;job&lt;/b&gt;&lt;/font&gt;" style="text;html=1;strokeColor=none;fillColor=none;align=center;verticalAlign=middle;whiteSpace=wrap;rounded=0;fontSize=9;" parent="1" vertex="1">
          <mxGeometry x="193" y="200" width="33" height="10" as="geometry" />
        </mxCell>
        <mxCell id="jz-TBpXuQfXwvzFLT4BO-23" value="&lt;font style=&quot;font-size: 10px;&quot;&gt;&lt;b&gt;organization&lt;/b&gt;&lt;/font&gt;" style="text;html=1;strokeColor=none;fillColor=none;align=center;verticalAlign=middle;whiteSpace=wrap;rounded=0;fontSize=9;" parent="1" vertex="1">
          <mxGeometry x="323.5" y="200" width="33" height="10" as="geometry" />
        </mxCell>
      </root>
    </mxGraphModel>
  </diagram>
</mxfile>
